<svg xmlns="http://www.w3.org/2000/svg" width="21.333" height="21.333" preserveAspectRatio="xMidYMid meet" version="1.0" viewBox="0 0 16 16"><metadata>Created by potrace 1.11, written by Peter Selinger 2001-2013</metadata><g fill="#000" stroke="none"><path d="M10123 31409 c-261 -9 -554 -32 -822 -65 -112 -13 -210 -24 -217 -24 -12 0 -14 -1234 -11 -8052 2 -7667 3 -8058 20 -8158 91 -534 297 -978 647 -1391 503 -593 1286 -1008 2115 -1123 307 -42 524 -41 840 5 614 88 1191 334 1666 710 125 98 399 371 493 489 358 452 556 956 596 1516 6 92 9 2874 9 8122 l-1 7982 -2561 -2 c-1409 0 -2657 -5 -2774 -9z" transform="translate(0.000000,16.000000) scale(0.000442,-0.000442)"/><path d="M20751 23433 c0 -5252 3 -8035 9 -8127 47 -656 327 -1257 815 -1749 582 -588 1392 -940 2280 -992 342 -20 879 77 1285 232 461 177 837 419 1175 758 443 444 691 923 802 1552 17 92 18 550 20 8154 l3 8056 -222 26 c-219 26 -322 36 -603 59 -97 8 -967 12 -2852 15 l-2711 4 -1 -7988z" transform="translate(0.000000,16.000000) scale(0.000442,-0.000442)"/><path d="M3599 28441 c-412 -435 -702 -798 -999 -1247 -561 -848 -981 -1759 -1259 -2728 -172 -597 -271 -1203 -323 -1981 -10 -150 -13 -1080 -13 -4410 0 -4650 -4 -4335 61 -4915 43 -393 133 -909 205 -1180 289 -1090 732 -2081 1339 -2995 568 -854 1368 -1691 2245 -2349 797 -599 1878 -1143 2890 -1455 692 -214 1315 -325 2155 -383 274 -19 16149 -19 16420 0 609 43 1262 141 1690 253 1079 284 2107 746 3020 1360 929 624 1915 1610 2539 2539 480 714 867 1497 1150 2324 259 757 380 1373 463 2356 16 199 24 8324 8 8695 -24 559 -89 1100 -191 1595 -152 734 -486 1653 -862 2370 -430 822 -882 1457 -1521 2138 l-171 183 -6 -6773 c-3 -3725 -9 -6789 -12 -6808 -4 -19 -11 -100 -17 -180 -24 -319 -80 -686 -155 -1026 -572 -2573 -2463 -4736 -5025 -5747 -863 -340 -1774 -536 -2735 -588 -286 -15 -1094 -6 -1330 15 -760 68 -1402 202 -2090 436 -1052 359 -2061 937 -2890 1657 l-80 70 -100 -86 c-856 -735 -1864 -1307 -2925 -1660 -733 -244 -1477 -387 -2244 -431 -231 -13 -933 -13 -1162 0 -981 57 -1915 267 -2809 633 -1989 814 -3596 2357 -4438 4262 -336 762 -546 1565 -621 2375 -8 91 -18 190 -22 220 -3 30 -9 3111 -13 6846 l-6 6791 -166 -176z" transform="translate(0.000000,16.000000) scale(0.000442,-0.000442)"/></g></svg>